<?xml version="1.0" encoding="UTF-8" standalone="no"?>
<!-- Created with Inkscape (http://www.inkscape.org/) -->

<svg
   xmlns:dc="http://purl.org/dc/elements/1.1/"
   xmlns:cc="http://creativecommons.org/ns#"
   xmlns:rdf="http://www.w3.org/1999/02/22-rdf-syntax-ns#"
   xmlns:svg="http://www.w3.org/2000/svg"
   xmlns="http://www.w3.org/2000/svg"
   xmlns:sodipodi="http://sodipodi.sourceforge.net/DTD/sodipodi-0.dtd"
   xmlns:inkscape="http://www.inkscape.org/namespaces/inkscape"
   width="400mm"
   height="200mm"
   viewBox="0 0 400 200"
   version="1.1"
   id="svg843"
   inkscape:version="1.0.1 (3bc2e813f5, 2020-09-07)"
   sodipodi:docname="round.svg">
  <defs
     id="defs837">
    <inkscape:path-effect
       effect="bspline" />
    <inkscape:path-effect
       effect="bspline"
       id="path-effect1479"
       is_visible="true"
       lpeversion="1"
       weight="33.333333"
       steps="2"
       helper_size="0"
       apply_no_weight="true"
       apply_with_weight="true"
       only_selected="false" />
    <inkscape:path-effect
       effect="bspline"
       id="path-effect1475"
       is_visible="true"
       lpeversion="1"
       weight="33.333333"
       steps="2"
       helper_size="0"
       apply_no_weight="true"
       apply_with_weight="true"
       only_selected="false" />
    <inkscape:path-effect
       effect="bspline"
       id="path-effect1462"
       is_visible="true"
       lpeversion="1"
       weight="33.333333"
       steps="2"
       helper_size="0"
       apply_no_weight="true"
       apply_with_weight="true"
       only_selected="false" />
    <inkscape:path-effect
       effect="bspline"
       id="path-effect1448"
       is_visible="true"
       lpeversion="1"
       weight="33.333333"
       steps="2"
       helper_size="0"
       apply_no_weight="true"
       apply_with_weight="true"
       only_selected="false" />
    <inkscape:path-effect
       effect="bspline"
       id="path-effect1436"
       is_visible="true"
       lpeversion="1"
       weight="33.333333"
       steps="2"
       helper_size="0"
       apply_no_weight="true"
       apply_with_weight="true"
       only_selected="false" />
    <inkscape:path-effect
       effect="bspline"
       id="path-effect1432"
       is_visible="true"
       lpeversion="1"
       weight="33.333333"
       steps="2"
       helper_size="0"
       apply_no_weight="true"
       apply_with_weight="true"
       only_selected="false" />
    <inkscape:path-effect
       effect="bspline"
       id="path-effect1424"
       is_visible="true"
       lpeversion="1"
       weight="33.333333"
       steps="2"
       helper_size="0"
       apply_no_weight="true"
       apply_with_weight="true"
       only_selected="false" />
    <inkscape:path-effect
       effect="bspline"
       id="path-effect1420"
       is_visible="true"
       lpeversion="1"
       weight="33.333333"
       steps="2"
       helper_size="0"
       apply_no_weight="true"
       apply_with_weight="true"
       only_selected="false" />
    <inkscape:path-effect
       effect="bspline"
       id="path-effect1416"
       is_visible="true"
       lpeversion="1"
       weight="33.333333"
       steps="2"
       helper_size="0"
       apply_no_weight="true"
       apply_with_weight="true"
       only_selected="false" />
    <inkscape:path-effect
       effect="bspline"
       id="path-effect1412"
       is_visible="true"
       lpeversion="1"
       weight="33.333333"
       steps="2"
       helper_size="0"
       apply_no_weight="true"
       apply_with_weight="true"
       only_selected="false" />
    <clipPath
       clipPathUnits="userSpaceOnUse"
       id="clipPath1506">
      <path
         id="path1508"
         style="fill:#ff0000;fill-opacity:1;fill-rule:nonzero;stroke:none"
         d="M -873.60352,247.32227 V 693.2832 H -303.6582 V 247.32227 Z m 106.35157,221.3164 c 1.73834,0.0128 3.82376,0.88212 5.9375,2.95703 9.80126,9.62124 19.84259,19.00204 29.40234,28.86328 21.21936,21.88861 55.77006,60.09554 76.01563,82.67383 10.07123,11.23161 20.16007,22.44857 30.07031,33.82227 1.85541,0.005 3.70874,0.0593 5.55078,0.26172 0.87235,0.34563 1.79268,0.58919 2.61719,1.03711 0.36507,0.19833 1.01488,0.6974 1.69726,1.29492 0.47687,0.12509 0.94215,0.28582 1.38672,0.5039 1.25106,0.61372 2.02532,1.92617 2.90625,3.00586 1.86864,2.29036 3.77907,4.56965 5.33008,7.08594 4.58982,7.44654 8.11994,15.44523 10.90625,23.70508 1.35623,1.76055 2.50511,3.25172 4.16406,5.40039 6.34454,7.60055 -0.19845,-1.42599 3.74024,8.86328 0.33448,0.87421 -0.75038,-2.49105 0.13086,-2.80664 0.81985,-0.29352 0.68761,1.60606 1.14062,2.34961 0.20398,0.33479 0.5645,0.54813 0.81055,0.85352 0.35051,0.43498 0.64957,0.90902 0.97461,1.36328 1.69598,4.83791 1.41791,1.91407 -1.13282,8.26172 -0.01,0.0242 1.37721,-1.75315 1.38477,-1.73047 0.0794,0.26139 0.0418,0.54623 0.0645,0.81836 -0.50883,2.29239 -0.91476,5.17278 -2.77539,6.91601 -0.52063,0.48777 -1.12577,0.86853 -1.74023,1.23828 -2.30158,4.40168 -4.34327,3.28499 -10.37891,-1.90429 -0.69373,-0.59649 -0.30516,-1.80326 -0.4707,-2.70313 -1.26406,-6.87023 -0.79352,-4.38799 -2.70899,-12.33789 -0.79757,-3.19031 -1.69999,-6.35818 -2.70703,-9.49023 -0.407,-0.52843 -0.92521,-1.20116 -1.3125,-1.70313 0.048,0.52135 0.094,1.02353 0.14649,1.59766 0.0949,1.0391 0.71082,2.1928 0.23437,3.12109 -1.07263,2.08993 -3.05611,3.56916 -4.58398,5.35352 -0.87171,0.0113 -1.76103,0.2012 -2.61524,0.0273 -3.06742,-0.62487 -5.04518,-2.37963 -6.48242,-5.05273 -0.0755,-0.1406 0.41092,-0.33535 0.4336,-0.20118 -0.62135,-0.57479 -1.29023,-1.10191 -1.86524,-1.72265 -0.73688,-0.57587 -0.84535,-0.72647 -0.65234,-0.6543 -0.53077,-0.29367 -1.40201,-0.78754 -3.36719,-1.94336 -0.73644,-1.48108 -1.41249,-2.99364 -2.20898,-4.44336 -0.17359,-0.31591 0.078,0.3174 0.30273,0.85547 0.0979,0.14712 0.14479,0.20639 0.26758,0.39844 0.0189,0.0302 -0.0513,0.12153 -0.0664,0.0879 -0.0486,-0.10663 -0.12811,-0.3114 -0.20117,-0.48633 -1.03828,-1.56051 -0.85683,-0.93614 -1.83008,-2.875 -0.13153,-0.26226 -0.21455,-0.54548 -0.32226,-0.81836 -0.7793,-0.98324 -1.61907,-1.92092 -2.33789,-2.94922 -0.16479,-0.23569 -0.19584,-0.54188 -0.29297,-0.8125 -0.10092,-0.19173 -0.17386,-0.40193 -0.30274,-0.57617 -0.54603,-0.73875 -1.21825,-1.38345 -1.71484,-2.15625 -0.0593,-0.0922 0.0926,-0.19747 0.13867,-0.29687 -0.77616,-0.72443 -1.55196,-1.44941 -2.32812,-2.17383 -0.73682,-1.15805 -1.58955,-2.25072 -2.21094,-3.47461 -0.3176,-0.62551 -0.43236,-1.33614 -0.58203,-2.02149 -0.55151,-2.5234 -0.63231,-4.85007 -0.61719,-7.39453 -0.78908,-4.29562 -0.90554,-5.89079 1.8125,-8.86523 -8.68966,-9.8951 -17.49755,-19.68539 -26.28906,-29.49024 -19.98871,-22.29267 -54.60551,-60.57379 -75.58203,-82.2207 -9.46303,-9.76539 -19.4032,-19.05629 -29.10547,-28.58398 -5.40077,-5.30358 -3.22368,-10.8609 1.21875,-10.82813 z m 153.63476,154.7793 c -0.82262,1.43887 -1.93932,2.79305 -3.25781,3.88672 0.65646,0.7678 1.18204,1.39372 1.78711,2.10547 1.44507,-0.80215 1.83325,-3.71842 1.4707,-5.99219 z m 3.39258,33.85351 c 0.15099,0.29876 0.31256,0.61461 0.54688,1.04688 0.10658,0.19687 0.0439,-0.5045 -0.11524,-0.66211 -0.17824,-0.17676 -0.30494,-0.28153 -0.43164,-0.38477 z M -596.92188,679 c -0.50559,0.37922 -0.96466,1.18769 -1.40039,2.70703 0.49174,-0.88608 0.91428,-1.81727 1.40039,-2.70703 z m 7.24415,7.00195 c -0.14295,0.0926 -0.28967,0.18235 -0.42774,0.28125 -0.0646,0.0457 0.18493,0.0214 0.23633,-0.0391 0.067,-0.0782 0.12578,-0.16289 0.19141,-0.24219 z" />
    </clipPath>
  </defs>
  <sodipodi:namedview
     id="base"
     pagecolor="#ffffff"
     bordercolor="#666666"
     borderopacity="1.0"
     inkscape:pageopacity="0.0"
     inkscape:pageshadow="2"
     inkscape:zoom="0.35"
     inkscape:cx="400"
     inkscape:cy="560"
     inkscape:document-units="mm"
     inkscape:current-layer="layer1"
     inkscape:document-rotation="0"
     showgrid="false"
     inkscape:window-width="1920"
     inkscape:window-height="1001"
     inkscape:window-x="-9"
     inkscape:window-y="-9"
     inkscape:window-maximized="1"
     inkscape:snap-bbox="true"
     inkscape:snap-global="false" />
  <metadata
     id="metadata840">
    <rdf:RDF>
      <cc:Work
         rdf:about="">
        <dc:format>image/svg+xml</dc:format>
        <dc:type
           rdf:resource="http://purl.org/dc/dcmitype/StillImage" />
        <dc:title></dc:title>
      </cc:Work>
    </rdf:RDF>
  </metadata>
  <g
     inkscape:label="Layer 1"
     inkscape:groupmode="layer"
     id="layer1">
    <path
       id="path1440"
       style="fill:#00ffff;fill-opacity:0.933333;fill-rule:evenodd;stroke-width:1.00157;stroke-linecap:round;stroke-linejoin:round"
       d="M 686.2168 828.10742 A -415.71428 -417.14283 0 0 0 477.14258 1190.0645 L 1308.5508 1194.2852 A -415.71428 -417.14283 0 0 0 1103.1387 830.22461 A -415.71428 -417.14283 0 0 0 686.2168 828.10742 z M 732.21484 908.26562 A -321.03346 -323.40451 0 0 1 1054.1816 909.90625 A -321.03346 -323.40451 0 0 1 1212.8105 1192.1582 L 570.75977 1188.8867 A -321.03346 -323.40451 0 0 1 732.21484 908.26562 z "
       transform="scale(0.26458333)" />
    <path
       id="path1473"
       style="fill:none;stroke:#000000;stroke-width:1.8835;stroke-linecap:butt;stroke-linejoin:miter;stroke-miterlimit:4;stroke-dasharray:none;stroke-opacity:1"
       d="m -197.9937,101.21222 c 5.67319,-3.907435 17.01879,-9.752895 17.01879,-9.752895 7.51412,-4.30581 13.62021,-6.922995 20.2894,-6.725867 8.11074,-0.647433 15.65795,-1.295139 24.04946,-0.817279 5.73747,0.962724 12.31911,1.643656 18.05605,2.605776 6.25119,0.84472 8.46101,3.1523 13.50666,4.70859 5.04052,3.17152 9.556932,6.01313 14.335002,9.019255 M -142.83476,51.683975 c -8.41986,-0.03277 -16.93631,0.959464 -24.87393,2.723345 -9.07157,2.015869 -17.38681,5.039601 -25.8284,9.197372 -8.44159,4.157774 -16.89654,9.379408 -25.57673,14.740702 l 74.55789,89.066036 73.608773,-89.821543 c -5.291362,-3.527576 -10.58282,-7.055593 -17.260443,-10.709426 -6.677628,-3.653829 -14.83768,-7.478585 -23.48281,-10.227799 -8.64512,-2.749211 -17.96853,-4.513138 -27.54405,-4.891175 -1.19694,-0.04725 -2.39746,-0.07283 -3.6003,-0.07751 z" />
    <path
       style="fill:none;stroke:#000000;stroke-width:1.765;stroke-linecap:butt;stroke-linejoin:miter;stroke-miterlimit:4;stroke-dasharray:none;stroke-opacity:1"
       d="m -316.25671,189.08736 c 6.8037,-2.77188 13.60728,-5.54371 20.15898,-7.31966 6.55169,-1.77594 12.85103,-2.55599 19.49659,-3.13637 6.64556,-0.58037 13.63664,-0.96102 20.56622,-0.82294 6.92958,0.13807 13.79749,0.79484 19.51442,1.74065 5.71693,0.94581 10.46397,2.22958 15.51128,4.30369 5.04731,2.07411 9.5675,4.56731 14.34952,7.20493"
       id="path1477"
       inkscape:path-effect="#path-effect1479"
       inkscape:original-d="m -316.25671,189.08736 c 6.80383,-2.77156 13.60741,-5.54339 20.41071,-8.31548 6.3,-0.77983 12.59934,-1.55988 18.89881,-2.34024 6.99163,-0.3804 13.98271,-0.76105 20.97366,-1.14197 6.86817,0.65703 13.73608,1.3138 20.60372,1.9703 4.56619,1.23506 9.31323,2.51883 14.3631,3.88431 5.04475,2.78265 9.56494,5.27585 14.34701,7.91338"
       sodipodi:nodetypes="ccccccc" />
    <path
       id="path1481"
       style="fill:none;stroke:#000000;stroke-width:1.765;stroke-linecap:butt;stroke-linejoin:miter;stroke-miterlimit:4;stroke-dasharray:none;stroke-opacity:1"
       d="m -275.97084,150.19904 c -8.41986,-0.0328 -16.93631,0.95947 -24.87393,2.72335 -9.07157,2.01587 -17.38681,5.0396 -25.8284,9.19737 -8.44159,4.15777 -16.89654,9.37941 -25.57673,14.7407 l 74.83936,83.15513 73.3273,-83.91063 c -5.29136,-3.52758 -10.58282,-7.0556 -17.26044,-10.70943 -6.67763,-3.65383 -14.83768,-7.47858 -23.4828,-10.2278 -8.64513,-2.74921 -17.96854,-4.51314 -27.54406,-4.89117 -1.19694,-0.0473 -2.39746,-0.0728 -3.6003,-0.0775 z" />
    <path
       style="fill:none;stroke:#000000;stroke-width:1.8835;stroke-linecap:butt;stroke-linejoin:miter;stroke-miterlimit:4;stroke-dasharray:none;stroke-opacity:1"
       d="m -364.05879,99.086713 c 5.67319,-3.90743 17.01879,-9.75289 17.01879,-9.75289 7.51412,-4.30581 13.62021,-6.923 20.2894,-6.72587 8.11074,-0.64743 15.65795,-1.29514 24.04946,-0.81728 5.73747,0.96272 12.31911,1.64366 18.05605,2.60578 6.25119,0.84472 8.46101,3.1523 13.50666,4.70859 5.04052,3.17152 9.55693,6.01313 14.335,9.01925"
       id="path1492"
       sodipodi:nodetypes="ccccccc" />
    <path
       style="fill:none;stroke:#000000;stroke-width:0.264583px;stroke-linecap:butt;stroke-linejoin:miter;stroke-opacity:1"
       d="m 173.66799,223.48847 17.45125,19.14007"
       id="path1519" />
  </g>
</svg>
