<?xml version="1.0" encoding="iso-8859-1"?>
<!-- Generator: Adobe Illustrator 19.0.0, SVG Export Plug-In . SVG Version: 6.00 Build 0)  -->
<svg version="1.1" id="Capa_1" xmlns="http://www.w3.org/2000/svg" xmlns:xlink="http://www.w3.org/1999/xlink" x="0px" y="0px"
	 viewBox="0 0 512 512" style="enable-background:new 0 0 512 512;" xml:space="preserve">
<g>
	<g>
		<path d="M452,76H60c-33.084,0-60,26.916-60,60v240c0,33.084,26.916,60,60,60h392c33.084,0,60-26.916,60-60V136
			C512,102.916,485.084,76,452,76z M482,376c0,16.542-13.458,30-30,30H60c-16.542,0-30-13.458-30-30V136c0-16.542,13.458-30,30-30
			h392c16.542,0,30,13.458,30,30V376z"/>
	</g>
</g>
<g>
	<g>
		<path d="M60,136v120h135V136H60z M165,226H90v-60h75V226z"/>
	</g>
</g>
<g>
	<g>
		<rect x="341.33" y="285" width="110.67" height="30"/>
	</g>
</g>
<g>
	<g>
		<rect x="399.17" y="136" width="52.834" height="30"/>
	</g>
</g>
<g>
	<g>
		<rect x="200.67" y="285" width="110.67" height="30"/>
	</g>
</g>
<g>
	<g>
		<rect x="60" y="285" width="110.67" height="30"/>
	</g>
</g>
<g>
</g>
<g>
</g>
<g>
</g>
<g>
</g>
<g>
</g>
<g>
</g>
<g>
</g>
<g>
</g>
<g>
</g>
<g>
</g>
<g>
</g>
<g>
</g>
<g>
</g>
<g>
</g>
<g>
</g>
</svg>
